<svg width="314" height="366" viewBox="0 0 314 366" fill="none" xmlns="http://www.w3.org/2000/svg">
<path d="M110.136 366H203.934C209.927 366 214.805 361.113 214.805 355.108V255.823C214.805 255.334 214.945 254.915 215.223 254.566L309.37 130.914C309.44 130.774 309.579 130.704 309.649 130.634C313.412 127.283 314.875 122.256 313.482 117.438C313.482 117.369 313.482 117.369 313.482 117.299C303.726 84.1339 283.238 54.2507 255.642 33.2346C227.07 11.4506 192.993 0 157.035 0C121.076 0 86.9299 11.5204 58.428 33.2346C30.8321 54.2507 10.2744 84.2037 0.518296 117.369C-0.87544 122.186 0.587982 127.213 4.35107 130.565C4.42076 130.634 4.56014 130.774 4.62982 130.844L98.7767 254.496C99.0554 254.845 99.1948 255.334 99.1948 255.753V355.038C99.2645 361.113 104.143 366 110.136 366ZM207.488 355.387C207.349 357.203 205.816 358.669 204.004 358.669H110.205C108.254 358.669 106.651 357.063 106.651 355.108V259.663C106.651 258.686 107.348 257.778 108.324 257.638C108.533 257.568 108.742 257.568 108.881 257.638C109.648 257.638 115.362 257.708 137.801 257.708C138.359 257.708 138.916 257.918 139.265 258.337C139.683 258.755 139.892 259.244 139.892 259.803V297.227C139.892 298.483 140.658 299.67 141.843 300.159C143.028 300.648 144.352 300.369 145.258 299.531L155.571 289.337C156.408 288.499 157.662 288.499 158.498 289.337L168.812 299.531C169.718 300.438 171.042 300.648 172.227 300.159C173.411 299.67 174.178 298.553 174.178 297.227V259.733C174.178 258.546 175.084 257.638 176.268 257.638C192.575 257.638 205.398 257.638 205.398 257.638C205.955 257.638 206.512 257.848 206.861 258.267C207.279 258.686 207.488 259.174 207.488 259.733V355.178C207.558 355.178 207.558 355.317 207.488 355.387ZM165.885 258.755C167.07 258.755 167.976 259.663 167.976 260.85V284.589C167.976 285.427 167.488 286.195 166.721 286.544C165.955 286.893 165.049 286.684 164.422 286.125L159.335 281.098C158.777 280.539 157.941 280.19 157.105 280.19C156.268 280.19 155.502 280.539 154.875 281.098L149.787 286.125C149.369 286.544 148.881 286.754 148.324 286.754C148.045 286.754 147.767 286.684 147.488 286.614C146.721 286.265 146.233 285.497 146.233 284.659V260.92C146.233 259.733 147.139 258.825 148.324 258.825H165.885V258.755ZM160.728 248.073V148.648C160.728 148.439 160.728 148.229 160.798 148.09C161.007 147.461 161.425 146.973 161.983 146.763C164.143 145.855 166.024 144.319 167.418 142.364C174.247 132.869 185.258 127.213 196.896 127.213C208.533 127.213 219.544 132.869 226.373 142.364C227.349 143.761 228.534 144.878 229.858 145.716C230.763 146.274 231.042 147.461 230.624 148.369L182.401 249.05C182.052 249.749 181.286 250.237 180.519 250.237H162.819C161.704 250.167 160.728 249.26 160.728 248.073ZM153.411 248.073C153.411 248.562 153.272 249.05 152.923 249.399C152.505 249.888 151.948 250.167 151.321 250.167H133.69C132.854 250.167 132.157 249.679 131.808 248.981L83.585 148.299C83.0972 147.322 83.4456 146.204 84.3515 145.646C85.6756 144.808 86.8602 143.691 87.8359 142.295C94.6652 132.799 105.606 127.143 117.313 127.143C128.951 127.143 139.962 132.799 146.721 142.295C148.115 144.25 149.996 145.786 152.157 146.693C152.923 147.042 153.411 147.81 153.411 148.648V248.073ZM296.548 135.731L209.997 249.33C209.579 249.818 209.021 250.167 208.324 250.167H193.272C192.575 250.167 191.878 249.818 191.53 249.19C191.181 248.562 191.112 247.794 191.39 247.165L238.708 148.369C238.987 147.81 239.474 147.391 240.032 147.252C242.889 146.484 245.328 144.808 247.14 142.295C253.9 132.799 264.91 127.143 276.548 127.143C283.029 127.143 289.3 128.819 294.806 132.101C295.084 132.24 295.433 132.45 295.781 132.589C296.339 132.869 296.757 133.358 296.896 133.986C297.105 134.614 296.966 135.243 296.548 135.731ZM9.5079 125.328C7.76573 123.932 7.06885 121.837 7.62635 119.673C7.62635 119.603 7.62635 119.533 7.69604 119.463C26.9296 53.4826 88.3933 7.33117 157.105 7.33117C225.816 7.33117 287.279 53.4128 306.513 119.463C307.14 121.697 306.443 123.862 304.631 125.258C302.82 126.655 300.59 126.864 298.569 125.677C291.949 121.767 284.283 119.742 276.548 119.742C262.541 119.742 249.3 126.585 241.147 138.035C240.102 139.572 238.568 140.34 236.687 140.34C234.875 140.34 233.342 139.572 232.297 138.035C224.143 126.585 210.833 119.742 196.826 119.742C182.819 119.742 169.578 126.585 161.425 138.035C160.31 139.572 158.777 140.34 156.965 140.34C155.153 140.34 153.62 139.572 152.575 138.035C144.422 126.585 131.181 119.742 117.174 119.742C103.167 119.742 89.8568 126.585 81.7034 138.035C80.6581 139.572 79.125 140.34 77.3131 140.34C75.4316 140.34 73.9682 139.572 72.8532 138.035C64.6998 126.585 51.4593 119.742 37.4523 119.742C29.7171 119.742 22.1212 121.767 15.4313 125.677C13.6194 126.864 11.3894 126.725 9.5079 125.328ZM17.5916 135.731C17.2431 135.243 17.1038 134.684 17.1734 134.126C17.2431 133.567 17.5916 133.078 18.0794 132.729C18.1491 132.659 18.2187 132.659 18.2884 132.589C18.6369 132.45 18.9156 132.24 19.1944 132.101C24.7693 128.819 31.1108 127.143 37.522 127.143C49.1597 127.143 60.1702 132.799 66.9298 142.295C68.672 144.738 71.111 146.484 73.9682 147.252C74.5257 147.391 75.0832 147.81 75.2922 148.369L122.61 247.165C122.888 247.794 122.888 248.562 122.47 249.19C122.122 249.818 121.425 250.167 120.728 250.167H105.676C105.048 250.167 104.421 249.888 104.003 249.33L17.5916 135.731Z" fill="white"/>
</svg>
