<svg width="19" height="19" viewBox="0 0 19 19" fill="none" xmlns="http://www.w3.org/2000/svg">
<path d="M16.3125 9.25H18C18 14.2422 13.957 18.25 9 18.25C4.00781 18.25 0 14.2422 0 9.25C0 4.29297 4.00781 0.25 9 0.25C11.1797 0.25 13.1484 1.05859 14.6953 2.35938L16.5586 0.53125C16.875 0.179688 17.4023 0.179688 17.7188 0.53125C18.0703 0.847656 18.0703 1.375 17.7188 1.69141L11.0391 8.37109C11.1797 8.65234 11.25 8.96875 11.25 9.25C11.25 10.5156 10.2305 11.5 9 11.5C7.73438 11.5 6.75 10.5156 6.75 9.25C6.75 8.01953 7.73438 7 9 7C9.28125 7 9.59766 7.07031 9.84375 7.21094L11.0742 5.98047C10.4766 5.55859 9.77344 5.3125 9 5.3125C6.82031 5.3125 5.0625 7.10547 5.0625 9.25C5.0625 11.4297 6.82031 13.1875 9 13.1875C11.1445 13.1875 12.9375 11.4297 12.9375 9.25H14.625C14.625 12.0273 12.6211 14.3125 10.0195 14.8047C9.73828 14.5234 9.38672 14.3125 9 14.3125C8.57812 14.3125 8.22656 14.5234 7.94531 14.8047C5.66016 14.3828 3.86719 12.5898 3.44531 10.3047C3.72656 10.0234 3.9375 9.67188 3.9375 9.25C3.9375 8.86328 3.72656 8.51172 3.44531 8.23047C3.9375 5.62891 6.22266 3.625 9 3.625C10.2305 3.625 11.3906 4.04688 12.3047 4.75L13.5 3.55469C12.2695 2.57031 10.6875 1.9375 9 1.9375C5.34375 1.9375 2.32031 4.60938 1.75781 8.08984C1.37109 8.33594 1.125 8.75781 1.125 9.25C1.125 9.77734 1.37109 10.1992 1.75781 10.4453C2.28516 13.5391 4.71094 15.9648 7.76953 16.457C8.05078 16.8789 8.47266 17.125 9 17.125C9.49219 17.125 9.91406 16.8789 10.1602 16.4922C13.6406 15.9297 16.3125 12.9062 16.3125 9.25Z" fill="black"/>
</svg>
