<svg width="14" height="11" viewBox="0 0 14 11" fill="none" xmlns="http://www.w3.org/2000/svg">
<path d="M13.4062 5.10156C12.1406 2.21875 9.60938 0.25 6.75 0.25C3.86719 0.25 1.33594 2.21875 0.0703125 5.10156C0.0234375 5.21875 0 5.38281 0 5.5C0 5.61719 0.0234375 5.80469 0.0703125 5.92188C1.33594 8.80469 3.86719 10.75 6.75 10.75C9.60938 10.75 12.1406 8.80469 13.4062 5.92188C13.4531 5.80469 13.5 5.61719 13.5 5.5C13.5 5.38281 13.4531 5.21875 13.4062 5.10156ZM10.125 5.5C10.125 7.375 8.60156 8.875 6.75 8.875C4.875 8.875 3.375 7.375 3.375 5.5C3.375 3.64844 4.875 2.125 6.75 2.125C8.60156 2.125 10.125 3.64844 10.125 5.5ZM6.75 3.25C6.67969 3.25 6.60938 3.27344 6.53906 3.27344C6.65625 3.48438 6.75 3.74219 6.75 4C6.75 4.84375 6.07031 5.5 5.25 5.5C4.96875 5.5 4.71094 5.42969 4.5 5.3125C4.5 5.38281 4.5 5.45312 4.5 5.5C4.5 6.74219 5.50781 7.75 6.75 7.75C7.99219 7.75 9 6.76562 9 5.52344C9 4.28125 7.96875 3.25 6.75 3.25Z" fill="white"/>
</svg>
