<svg width="13" height="13" viewBox="0 0 13 13" fill="none" xmlns="http://www.w3.org/2000/svg">
<path d="M7.5625 6.59375V4.0625C7.5625 3.75781 7.30469 3.5 7 3.5C6.67188 3.5 6.4375 3.75781 6.4375 4.0625V6.875C6.4375 7.0625 6.50781 7.22656 6.64844 7.34375L8.14844 8.46875C8.24219 8.53906 8.35938 8.5625 8.47656 8.5625C8.64062 8.5625 8.80469 8.49219 8.92188 8.35156C9.10938 8.09375 9.0625 7.74219 8.80469 7.55469L7.5625 6.59375ZM6.97656 0.5C3.64844 0.5 0.976562 3.19531 0.976562 6.5C0.976562 9.82812 3.64844 12.5 6.97656 12.5C10.2812 12.5 12.9531 9.82812 12.9531 6.5C12.9531 3.19531 10.3047 0.5 6.97656 0.5ZM7 11.375C4.30469 11.375 2.125 9.19531 2.125 6.5C2.125 3.82812 4.30469 1.625 7 1.625C9.67188 1.625 11.875 3.82812 11.875 6.5C11.875 9.19531 9.67188 11.375 7 11.375Z" fill="#6F6F6F"/>
</svg>
