<svg width="14" height="9" viewBox="0 0 14 9" fill="none" xmlns="http://www.w3.org/2000/svg">
<path d="M11.2186 -4.28444L8.29745 0.0555558C8.09545 0.351111 8.48391 0.708889 8.7636 0.46L11.6382 -2.04444C11.7159 -2.10667 11.8246 -2.06 11.8246 -1.95111V5.87333C11.8246 5.98222 11.6848 6.02889 11.6226 5.95111L2.9212 -4.47111C2.64151 -4.81333 2.23751 -5 1.7869 -5H1.47614C0.668147 -5 0 -4.33111 0 -3.50667V7.50667C0 8.33111 0.668147 9 1.49168 9C2.00444 9 2.48613 8.73556 2.76582 8.28444L5.68701 3.94444C5.88901 3.64889 5.50056 3.29111 5.22087 3.54L2.34628 6.02889C2.26859 6.09111 2.15982 6.04445 2.15982 5.93556V-1.87333C2.15982 -1.98222 2.29967 -2.02889 2.36182 -1.95111L11.0633 8.47111C11.343 8.81333 11.7625 9 12.1976 9H12.5083C13.3319 9 14 8.33111 14 7.50667V-3.50667C14 -4.33111 13.3319 -5 12.5083 -5C11.98 -5 11.4983 -4.73556 11.2186 -4.28444Z" fill="white"/>
</svg>
