<svg id="Layer_1" data-name="Layer 1" xmlns="http://www.w3.org/2000/svg" viewBox="0 0 67 67.13"><defs><style>.cls-1{fill:#fff;}</style></defs><path class="cls-1" d="M243.56,226.27a1.52,1.52,0,0,0-2.13,0l-7.87,7.88-7.88-7.88a1.51,1.51,0,0,0-2.12,0,1.49,1.49,0,0,0,0,2.12l7.88,7.88-7.88,7.88a1.49,1.49,0,0,0,0,2.12,1.5,1.5,0,0,0,2.12,0l7.88-7.88,7.87,7.88a1.51,1.51,0,0,0,2.13,0,1.51,1.51,0,0,0,0-2.12l-7.88-7.88,7.88-7.88A1.51,1.51,0,0,0,243.56,226.27Z" transform="translate(-206.31 -209.18)"/><path class="cls-1" d="M272.82,272.28l-16.89-16.89a1.5,1.5,0,0,0-1.05-.39h-1.44a27,27,0,1,0-1.44,1.44v1.31a1.61,1.61,0,0,0,.39,1.18l16.89,16.89a1.52,1.52,0,0,0,2.23,0l1.31-1.31A1.52,1.52,0,0,0,272.82,272.28Zm-39.28-12.83a23,23,0,1,1,23-23A22.91,22.91,0,0,1,233.54,259.45Z" transform="translate(-206.31 -209.18)"/></svg>