<svg width="9" height="9" viewBox="0 0 9 9" fill="none" xmlns="http://www.w3.org/2000/svg">
<path d="M8.26562 6.98438C8.57031 7.26562 8.57031 7.75781 8.26562 8.03906C8.125 8.17969 7.9375 8.25 7.75 8.25C7.53906 8.25 7.35156 8.17969 7.21094 8.03906L4.75 5.57812L2.26562 8.03906C2.125 8.17969 1.9375 8.25 1.75 8.25C1.53906 8.25 1.35156 8.17969 1.21094 8.03906C0.90625 7.75781 0.90625 7.26562 1.21094 6.98438L3.67188 4.5L1.21094 2.03906C0.90625 1.75781 0.90625 1.26562 1.21094 0.984375C1.49219 0.679688 1.98438 0.679688 2.26562 0.984375L4.75 3.44531L7.21094 0.984375C7.49219 0.679688 7.98438 0.679688 8.26562 0.984375C8.57031 1.26562 8.57031 1.75781 8.26562 2.03906L5.80469 4.52344L8.26562 6.98438Z" fill="#C54747"/>
</svg>
