<svg width="17" height="17" viewBox="0 0 17 17" fill="none" xmlns="http://www.w3.org/2000/svg">
<path d="M15.75 15.3733L11.5625 11.1858C12.4688 10.092 12.9688 8.68579 12.9688 7.15454C12.9688 3.59204 10.0312 0.654541 6.46875 0.654541C2.875 0.654541 0 3.59204 0 7.15454C0 10.7483 2.90625 13.6545 6.46875 13.6545C7.96875 13.6545 9.375 13.1545 10.5 12.2483L14.6875 16.4358C14.8438 16.592 15.0312 16.6545 15.25 16.6545C15.4375 16.6545 15.625 16.592 15.75 16.4358C16.0625 16.1545 16.0625 15.6858 15.75 15.3733ZM1.5 7.15454C1.5 4.40454 3.71875 2.15454 6.5 2.15454C9.25 2.15454 11.5 4.40454 11.5 7.15454C11.5 9.93579 9.25 12.1545 6.5 12.1545C3.71875 12.1545 1.5 9.93579 1.5 7.15454Z" fill="white"/>
</svg>
