<svg width="18" height="17" viewBox="0 0 18 17" fill="none" xmlns="http://www.w3.org/2000/svg">
<path d="M17.75 5.46875L13.25 1.25C12.9375 0.96875 12.4688 0.96875 12.1875 1.28125C11.9062 1.59375 11.9062 2.0625 12.2188 2.34375L15.3438 5.28125H10.25C8.96875 5.21875 7.78125 5.71875 6.90625 6.625C6 7.53125 5.5 8.71875 5.5 10V12.75C5.5 13.1562 5.8125 13.4688 6.25 13.4688C6.65625 13.4688 7 13.1875 7 12.75V10C7 9.125 7.3125 8.3125 7.9375 7.6875C8.5625 7.09375 9.3125 6.71875 10.25 6.75H15.3438L12.2188 9.71875C11.9062 10 11.9062 10.4688 12.1875 10.7812C12.3438 10.9062 12.5312 11.0312 12.7188 11.0312C12.9062 11.0312 13.0938 10.9375 13.25 10.8125L17.75 6.59375C17.9062 6.40625 18 6.21875 18 6C18 5.8125 17.9062 5.625 17.75 5.46875ZM11.25 13C10.8125 13 10.5 13.3438 10.5 13.75V15.2188C10.5 15.3438 10.375 15.4375 10.25 15.4375H1.75C1.59375 15.4375 1.5 15.3125 1.5 15.2188V6.75C1.5 6.625 1.59375 6.53125 1.75 6.53125H3.5C3.90625 6.53125 4.25 6.21875 4.25 5.8125C4.25 5.4375 3.90625 5.09375 3.5 5.09375H1.75C0.78125 5.09375 0 5.875 0 6.8125V15.2812C0 16.2188 0.78125 17 1.75 17H10.25C11.1875 17 12 16.2188 12 15.2812V13.8125C12 13.3438 11.6562 13 11.25 13Z" fill="white"/>
</svg>
